solid OpenSCAD_Model
  facet normal -1 0 0
    outer loop
      vertex -2.8 -0.299999 -2.8
      vertex -2.8 0.299999 1
      vertex -2.8 0.299999 -2.8
    endloop
  endfacet
  facet normal -1 -0 0
    outer loop
      vertex -2.8 0.299999 1
      vertex -2.8 -0.299999 -2.8
      vertex -2.8 -0.299999 1
    endloop
  endfacet
  facet normal 1 -0 0
    outer loop
      vertex -2.2 -0.299999 1
      vertex -2.2 0.299999 -2.8
      vertex -2.2 0.299999 1
    endloop
  endfacet
  facet normal 1 0 0
    outer loop
      vertex -2.2 0.299999 -2.8
      vertex -2.2 -0.299999 1
      vertex -2.2 -0.299999 -2.8
    endloop
  endfacet
  facet normal 0 0 -1
    outer loop
      vertex -2.8 -0.299999 -2.8
      vertex -2.2 0.299999 -2.8
      vertex -2.2 -0.299999 -2.8
    endloop
  endfacet
  facet normal -0 0 -1
    outer loop
      vertex -2.2 0.299999 -2.8
      vertex -2.8 -0.299999 -2.8
      vertex -2.8 0.299999 -2.8
    endloop
  endfacet
  facet normal 0 -1 0
    outer loop
      vertex -2.8 -0.299999 -2.8
      vertex -2.2 -0.299999 1
      vertex -2.8 -0.299999 1
    endloop
  endfacet
  facet normal 0 -1 -0
    outer loop
      vertex -2.2 -0.299999 1
      vertex -2.8 -0.299999 -2.8
      vertex -2.2 -0.299999 -2.8
    endloop
  endfacet
  facet normal 0 1 -0
    outer loop
      vertex -2.2 0.299999 -2.8
      vertex -2.8 0.299999 1
      vertex -2.2 0.299999 1
    endloop
  endfacet
  facet normal 0 1 0
    outer loop
      vertex -2.8 0.299999 1
      vertex -2.2 0.299999 -2.8
      vertex -2.8 0.299999 -2.8
    endloop
  endfacet
  facet normal -1 0 0
    outer loop
      vertex -0.299999 -0.299999 -2.8
      vertex -0.299999 0.299999 1
      vertex -0.299999 0.299999 -2.8
    endloop
  endfacet
  facet normal -1 -0 0
    outer loop
      vertex -0.299999 0.299999 1
      vertex -0.299999 -0.299999 -2.8
      vertex -0.299999 -0.299999 1
    endloop
  endfacet
  facet normal 1 -0 0
    outer loop
      vertex 0.299999 -0.299999 1
      vertex 0.299999 0.299999 -2.8
      vertex 0.299999 0.299999 1
    endloop
  endfacet
  facet normal 1 0 0
    outer loop
      vertex 0.299999 0.299999 -2.8
      vertex 0.299999 -0.299999 1
      vertex 0.299999 -0.299999 -2.8
    endloop
  endfacet
  facet normal 0 0 -1
    outer loop
      vertex -0.299999 -0.299999 -2.8
      vertex 0.299999 0.299999 -2.8
      vertex 0.299999 -0.299999 -2.8
    endloop
  endfacet
  facet normal -0 0 -1
    outer loop
      vertex 0.299999 0.299999 -2.8
      vertex -0.299999 -0.299999 -2.8
      vertex -0.299999 0.299999 -2.8
    endloop
  endfacet
  facet normal 0 -1 0
    outer loop
      vertex -0.299999 -0.299999 -2.8
      vertex 0.299999 -0.299999 1
      vertex -0.299999 -0.299999 1
    endloop
  endfacet
  facet normal 0 -1 -0
    outer loop
      vertex 0.299999 -0.299999 1
      vertex -0.299999 -0.299999 -2.8
      vertex 0.299999 -0.299999 -2.8
    endloop
  endfacet
  facet normal 0 1 -0
    outer loop
      vertex 0.299999 0.299999 -2.8
      vertex -0.299999 0.299999 1
      vertex 0.299999 0.299999 1
    endloop
  endfacet
  facet normal 0 1 0
    outer loop
      vertex -0.299999 0.299999 1
      vertex 0.299999 0.299999 -2.8
      vertex -0.299999 0.299999 -2.8
    endloop
  endfacet
  facet normal -1 0 0
    outer loop
      vertex 2.2 -0.299999 -2.8
      vertex 2.2 0.299999 1
      vertex 2.2 0.299999 -2.8
    endloop
  endfacet
  facet normal -1 -0 0
    outer loop
      vertex 2.2 0.299999 1
      vertex 2.2 -0.299999 -2.8
      vertex 2.2 -0.299999 1
    endloop
  endfacet
  facet normal 1 -0 0
    outer loop
      vertex 2.8 -0.299999 1
      vertex 2.8 0.299999 -2.8
      vertex 2.8 0.299999 1
    endloop
  endfacet
  facet normal 1 0 0
    outer loop
      vertex 2.8 0.299999 -2.8
      vertex 2.8 -0.299999 1
      vertex 2.8 -0.299999 -2.8
    endloop
  endfacet
  facet normal 0 1 -0
    outer loop
      vertex 2.8 0.299999 -2.8
      vertex 2.2 0.299999 1
      vertex 2.8 0.299999 1
    endloop
  endfacet
  facet normal 0 1 0
    outer loop
      vertex 2.2 0.299999 1
      vertex 2.8 0.299999 -2.8
      vertex 2.2 0.299999 -2.8
    endloop
  endfacet
  facet normal 0 0 -1
    outer loop
      vertex 2.2 -0.299999 -2.8
      vertex 2.8 0.299999 -2.8
      vertex 2.8 -0.299999 -2.8
    endloop
  endfacet
  facet normal -0 0 -1
    outer loop
      vertex 2.8 0.299999 -2.8
      vertex 2.2 -0.299999 -2.8
      vertex 2.2 0.299999 -2.8
    endloop
  endfacet
  facet normal 0 -1 0
    outer loop
      vertex 2.2 -0.299999 -2.8
      vertex 2.8 -0.299999 1
      vertex 2.2 -0.299999 1
    endloop
  endfacet
  facet normal 0 -1 -0
    outer loop
      vertex 2.8 -0.299999 1
      vertex 2.2 -0.299999 -2.8
      vertex 2.8 -0.299999 -2.8
    endloop
  endfacet
  facet normal -1 0 0
    outer loop
      vertex -5.75 -1.95 1
      vertex -5.75 1.95 3.85
      vertex -5.75 1.95 1
    endloop
  endfacet
  facet normal -1 -0 0
    outer loop
      vertex -5.75 1.95 3.85
      vertex -5.75 -1.95 1
      vertex -5.75 -1.95 3.85
    endloop
  endfacet
  facet normal 0 0 1
    outer loop
      vertex 5.75 1.95 3.85
      vertex 0.25 1.1 3.85
      vertex 5.75 -1.95 3.85
    endloop
  endfacet
  facet normal -0 0 1
    outer loop
      vertex -5.75 1.95 3.85
      vertex 0.25 1.1 3.85
      vertex 5.75 1.95 3.85
    endloop
  endfacet
  facet normal 0 0 1
    outer loop
      vertex -3.25 1.1 3.85
      vertex -5.75 1.95 3.85
      vertex -3.25 -1.1 3.85
    endloop
  endfacet
  facet normal 0 0 1
    outer loop
      vertex 0.25 1.1 3.85
      vertex -5.75 1.95 3.85
      vertex -3.25 1.1 3.85
    endloop
  endfacet
  facet normal -0 0 1
    outer loop
      vertex 0.25 -1.1 3.85
      vertex 5.75 -1.95 3.85
      vertex 0.25 1.1 3.85
    endloop
  endfacet
  facet normal 0 0 1
    outer loop
      vertex -5.75 -1.95 3.85
      vertex 0.25 -1.1 3.85
      vertex -3.25 -1.1 3.85
    endloop
  endfacet
  facet normal 0 0 1
    outer loop
      vertex 0.25 -1.1 3.85
      vertex -5.75 -1.95 3.85
      vertex 5.75 -1.95 3.85
    endloop
  endfacet
  facet normal 0 0 1
    outer loop
      vertex -5.75 -1.95 3.85
      vertex -3.25 -1.1 3.85
      vertex -5.75 1.95 3.85
    endloop
  endfacet
  facet normal 1 -0 0
    outer loop
      vertex 5.75 -1.95 3.85
      vertex 5.75 1.95 1
      vertex 5.75 1.95 3.85
    endloop
  endfacet
  facet normal 1 0 0
    outer loop
      vertex 5.75 1.95 1
      vertex 5.75 -1.95 3.85
      vertex 5.75 -1.95 1
    endloop
  endfacet
  facet normal 0 0 -1
    outer loop
      vertex 5.75 -1.95 1
      vertex 2.8 -0.299999 1
      vertex 5.75 1.95 1
    endloop
  endfacet
  facet normal 0 0 -1
    outer loop
      vertex 5.75 -1.95 1
      vertex 2.2 -0.299999 1
      vertex 2.8 -0.299999 1
    endloop
  endfacet
  facet normal 0 0 -1
    outer loop
      vertex 2.2 -0.299999 1
      vertex 0.299999 -0.299999 1
      vertex 2.2 0.299999 1
    endloop
  endfacet
  facet normal 0 0 -1
    outer loop
      vertex 5.75 -1.95 1
      vertex 0.299999 -0.299999 1
      vertex 2.2 -0.299999 1
    endloop
  endfacet
  facet normal 0 0 -1
    outer loop
      vertex 5.75 -1.95 1
      vertex -0.299999 -0.299999 1
      vertex 0.299999 -0.299999 1
    endloop
  endfacet
  facet normal 0 0 -1
    outer loop
      vertex -0.299999 -0.299999 1
      vertex -2.2 -0.299999 1
      vertex -0.299999 0.299999 1
    endloop
  endfacet
  facet normal 0 0 -1
    outer loop
      vertex -5.75 -1.95 1
      vertex -0.299999 -0.299999 1
      vertex 5.75 -1.95 1
    endloop
  endfacet
  facet normal -0 0 -1
    outer loop
      vertex -0.299999 -0.299999 1
      vertex -5.75 -1.95 1
      vertex -2.2 -0.299999 1
    endloop
  endfacet
  facet normal -0 0 -1
    outer loop
      vertex -2.8 -0.299999 1
      vertex -5.75 -1.95 1
      vertex -2.8 0.299999 1
    endloop
  endfacet
  facet normal -0 0 -1
    outer loop
      vertex -2.2 -0.299999 1
      vertex -5.75 -1.95 1
      vertex -2.8 -0.299999 1
    endloop
  endfacet
  facet normal 0 0 -1
    outer loop
      vertex 2.8 0.299999 1
      vertex 5.75 1.95 1
      vertex 2.8 -0.299999 1
    endloop
  endfacet
  facet normal 0 0 -1
    outer loop
      vertex 2.2 0.299999 1
      vertex 5.75 1.95 1
      vertex 2.8 0.299999 1
    endloop
  endfacet
  facet normal 0 0 -1
    outer loop
      vertex 0.299999 0.299999 1
      vertex 2.2 0.299999 1
      vertex 0.299999 -0.299999 1
    endloop
  endfacet
  facet normal 0 0 -1
    outer loop
      vertex 2.2 0.299999 1
      vertex 0.299999 0.299999 1
      vertex 5.75 1.95 1
    endloop
  endfacet
  facet normal 0 0 -1
    outer loop
      vertex -0.299999 0.299999 1
      vertex 5.75 1.95 1
      vertex 0.299999 0.299999 1
    endloop
  endfacet
  facet normal 0 0 -1
    outer loop
      vertex -2.2 0.299999 1
      vertex -0.299999 0.299999 1
      vertex -2.2 -0.299999 1
    endloop
  endfacet
  facet normal 0 0 -1
    outer loop
      vertex -5.75 1.95 1
      vertex -0.299999 0.299999 1
      vertex -2.2 0.299999 1
    endloop
  endfacet
  facet normal 0 0 -1
    outer loop
      vertex -5.75 1.95 1
      vertex -2.2 0.299999 1
      vertex -2.8 0.299999 1
    endloop
  endfacet
  facet normal 0 0 -1
    outer loop
      vertex -0.299999 0.299999 1
      vertex -5.75 1.95 1
      vertex 5.75 1.95 1
    endloop
  endfacet
  facet normal 0 0 -1
    outer loop
      vertex -5.75 1.95 1
      vertex -2.8 0.299999 1
      vertex -5.75 -1.95 1
    endloop
  endfacet
  facet normal 0 -1 0
    outer loop
      vertex -5.75 -1.95 1
      vertex 5.75 -1.95 3.85
      vertex -5.75 -1.95 3.85
    endloop
  endfacet
  facet normal 0 -1 -0
    outer loop
      vertex 5.75 -1.95 3.85
      vertex -5.75 -1.95 1
      vertex 5.75 -1.95 1
    endloop
  endfacet
  facet normal 0 1 -0
    outer loop
      vertex 5.75 1.95 1
      vertex -5.75 1.95 3.85
      vertex 5.75 1.95 3.85
    endloop
  endfacet
  facet normal 0 1 0
    outer loop
      vertex -5.75 1.95 3.85
      vertex 5.75 1.95 1
      vertex -5.75 1.95 1
    endloop
  endfacet
  facet normal -1 0 0
    outer loop
      vertex -3.25 -1.1 3.85
      vertex -3.25 1.1 5
      vertex -3.25 1.1 3.85
    endloop
  endfacet
  facet normal -1 -0 0
    outer loop
      vertex -3.25 1.1 5
      vertex -3.25 -1.1 3.85
      vertex -3.25 -1.1 5
    endloop
  endfacet
  facet normal -0 0 1
    outer loop
      vertex -3.25 1.1 5
      vertex 0.25 -1.1 5
      vertex 0.25 1.1 5
    endloop
  endfacet
  facet normal 0 0 1
    outer loop
      vertex 0.25 -1.1 5
      vertex -3.25 1.1 5
      vertex -3.25 -1.1 5
    endloop
  endfacet
  facet normal 1 -0 0
    outer loop
      vertex 0.25 -1.1 5
      vertex 0.25 1.1 3.85
      vertex 0.25 1.1 5
    endloop
  endfacet
  facet normal 1 0 0
    outer loop
      vertex 0.25 1.1 3.85
      vertex 0.25 -1.1 5
      vertex 0.25 -1.1 3.85
    endloop
  endfacet
  facet normal 0 -1 0
    outer loop
      vertex -3.25 -1.1 3.85
      vertex 0.25 -1.1 5
      vertex -3.25 -1.1 5
    endloop
  endfacet
  facet normal 0 -1 -0
    outer loop
      vertex 0.25 -1.1 5
      vertex -3.25 -1.1 3.85
      vertex 0.25 -1.1 3.85
    endloop
  endfacet
  facet normal 0 1 -0
    outer loop
      vertex 0.25 1.1 3.85
      vertex -3.25 1.1 5
      vertex 0.25 1.1 5
    endloop
  endfacet
  facet normal 0 1 0
    outer loop
      vertex -3.25 1.1 5
      vertex 0.25 1.1 3.85
      vertex -3.25 1.1 3.85
    endloop
  endfacet
endsolid OpenSCAD_Model
